<?xml version="1.0" encoding="UTF-8"?>
<!-- Generator: Adobe Illustrator 25.2.3, SVG Export Plug-In . SVG Version: 6.00 Build 0)  -->
<svg enable-background="new 0 0 24 24" version="1.1" viewBox="0 0 24 24" xml:space="preserve" xmlns="http://www.w3.org/2000/svg">
<path d="m23.173 15.875-1.9224-2.2471c0.095703-0.54688 0.14404-1.0938 0.14404-1.6279 0-0.53809-0.048828-1.0869-0.14453-1.6338l1.9214-2.2188c0.10352-0.11914 0.12012-0.29199 0.041016-0.42871l-1.9229-3.3301c-0.078613-0.13574-0.23535-0.20312-0.38965-0.17969l-2.9014 0.54004c-0.84033-0.7041-1.7852-1.25-2.813-1.626l-0.98486-2.7891c-0.052246-0.14844-0.19287-0.24707-0.3501-0.24707h-3.8452c-0.1582 0-0.29932 0.099609-0.35107 0.25l-0.96387 2.7832c-1.0303 0.37598-1.978 0.92285-2.8213 1.6289l-2.9014-0.54004c-0.15137-0.022461-0.31055 0.043945-0.38965 0.17969l-1.9224 3.3301c-0.079102 0.13672-0.0625 0.30859 0.041016 0.42871l1.9214 2.2188c-0.096191 0.54883-0.14502 1.0977-0.14502 1.6338 0 0.53418 0.04834 1.0811 0.14404 1.6279l-1.9219 2.2471c-0.10254 0.11914-0.11816 0.29102-0.039551 0.42676l1.9224 3.3291c0.079102 0.13672 0.23584 0.21387 0.39209 0.17871l2.9014-0.55762c0.84326 0.70605 1.79 1.2529 2.8188 1.6279l0.96387 2.7822c0.051758 0.15039 0.19287 0.25 0.35107 0.25h3.8452c0.15723 0 0.29785-0.098633 0.3501-0.24707l0.98486-2.7881c1.0273-0.37598 1.9712-0.92188 2.811-1.625l2.9009 0.55762c0.1543 0.033203 0.31299-0.041992 0.39209-0.17871l1.9229-3.3291c0.078613-0.13574 0.062988-0.30762-0.039551-0.42676zm-5.2114 2.6143c-0.11279-0.021484-0.22803 0.0087891-0.31396 0.083984-0.84717 0.7373-1.814 1.2959-2.874 1.6611-0.10693 0.037109-0.19141 0.12109-0.229 0.22754l-0.95654 2.708h-3.3179l-0.93604-2.7021c-0.037598-0.1084-0.12256-0.19336-0.23047-0.23047-1.062-0.36328-2.0317-0.92383-2.8833-1.6641-0.085938-0.075195-0.20117-0.10645-0.31396-0.083984l-0.59338 0.11401c1.296-2.4954 3.9608-4.2166 6.6364-4.2166 2.5691 0 5.3568 1.7959 6.7296 4.2402l-0.71735-0.1377zm-6.1416-5.0713c-1.6138 0-2.9263-1.3135-2.9263-2.9268s1.3125-2.9268 2.9263-2.9268 2.9263 1.3135 2.9263 2.9268-1.3125 2.9268-2.9263 2.9268zm8.9585 5.6123-1.1503-0.22095c-9.766e-4 -0.0021973-6.104e-4 -0.0043945-0.0015869-0.0065918-1.0229-2.2019-3.3966-4.4219-6.2426-5.0059 1.2401-0.58936 2.1053-1.8438 2.1053-3.3057 0-2.0234-1.646-3.6689-3.6694-3.6689s-3.6694 1.6455-3.6694 3.6689c0 1.4993 0.90594 2.7869 2.1972 3.3555-2.501 0.56299-4.7988 2.3662-5.9003 4.7959-0.019531 0.042969-0.028076 0.088135-0.030518 0.13281l-1.3274 0.25488-1.6587-2.8721 1.8662-2.1826c0.07373-0.085938 0.104-0.2002 0.08252-0.31152-0.1084-0.55957-0.16309-1.1191-0.16309-1.6641 0-0.54688 0.055176-1.1094 0.16406-1.6719 0.021484-0.11133-0.0092773-0.22754-0.083984-0.31348l-1.8652-2.1533 1.6592-2.874 2.8174 0.52441c0.11279 0.019531 0.22656-0.0097656 0.31152-0.084961 0.85059-0.74023 1.8213-1.2998 2.8843-1.665 0.10791-0.037109 0.19287-0.12207 0.23047-0.23047l0.93604-2.7021h3.3179l0.95654 2.709c0.037598 0.10645 0.12207 0.19043 0.229 0.22754 1.0601 0.36523 2.0273 0.92383 2.875 1.6611 0.084961 0.075195 0.20117 0.10352 0.31152 0.084961l2.8174-0.52441 1.6592 2.874-1.8652 2.1533c-0.074707 0.085938-0.10547 0.20215-0.083984 0.31445 0.10889 0.55859 0.16406 1.1211 0.16406 1.6709 0 0.54492-0.054688 1.1045-0.16309 1.6641-0.021484 0.11133 0.0087891 0.22559 0.08252 0.31152l1.8667 2.1826-1.6592 2.8721z" fill="#fff"/>
</svg>
