<svg xmlns="http://www.w3.org/2000/svg" viewBox="0 0 389.87315 34.81265">
  <defs>
    <style>
      .cls-1 {
        fill: #fff;
      }
    </style>
  </defs>
  <g id="Layer_2" data-name="Layer 2">
    <g id="Layer_1-2" data-name="Layer 1">
      <g>
        <g>
          <path class="cls-1" d="M37.43429,8.35172H42.219l4.70436,12.47312h.05386L51.76233,8.35172h4.4889L48.40214,27.38411H45.04148Z"/>
          <path class="cls-1" d="M74.28908,20.04527a9.18884,9.18884,0,0,1-.51074,3.11829,6.87075,6.87075,0,0,1-1.51874,2.47337,6.95639,6.95639,0,0,1-2.51377,1.63945,10.5388,10.5388,0,0,1-6.96227,0,6.95016,6.95016,0,0,1-2.51328-1.63945,6.85078,6.85078,0,0,1-1.51875-2.47337,9.1654,9.1654,0,0,1-.51074-3.11829V8.35172h4.19314V19.88417a4.63662,4.63662,0,0,0,.2823,1.63993,3.92587,3.92587,0,0,0,.793,1.30377,3.59471,3.59471,0,0,0,1.22346.85989,3.833,3.833,0,0,0,1.54567.30923,3.7458,3.7458,0,0,0,1.53221-.30923,3.63412,3.63412,0,0,0,1.20952-.85989,3.92584,3.92584,0,0,0,.793-1.30377,4.63662,4.63662,0,0,0,.2823-1.63993V8.35172h4.19362Z"/>
          <path class="cls-1" d="M78.32111,8.35172h4.19362V23.51319H90.2835v3.87092H78.32111Z"/>
          <path class="cls-1" d="M92.59528,8.35172h5.6989l8.091,13.22576h.05386V8.35172h4.19362V27.38411h-5.48393L96.84228,13.83564h-.05386V27.38411H92.59528Z"/>
          <path class="cls-1" d="M114.66468,8.35172h12.93v3.87092H118.8583v3.5487h8.25257v3.87092H118.8583v3.87093h9.22018v3.87092h-13.4138Z"/>
          <path class="cls-1" d="M131.43867,8.35172h7.36528a13.011,13.011,0,0,1,2.75567.2823,6.53884,6.53884,0,0,1,2.28485.94116,4.69373,4.69373,0,0,1,1.55914,1.77411,6.00987,6.00987,0,0,1,.57807,2.78212,5.58755,5.58755,0,0,1-1.04841,3.42751,4.72048,4.72048,0,0,1-3.0649,1.78758l4.839,8.03761h-5.02705l-3.97865-7.60767h-2.06987v7.60767h-4.19314Zm4.19314,7.8765h2.47337q.56411,0,1.196-.0404a3.74483,3.74483,0,0,0,1.14267-.2419,1.97853,1.97853,0,0,0,.8469-.63193,1.924,1.924,0,0,0,.33568-1.20951,2.007,2.007,0,0,0-.29577-1.15565,1.97209,1.97209,0,0,0-.75264-.65886,3.35242,3.35242,0,0,0-1.0484-.30923,8.61131,8.61131,0,0,0-1.15565-.08032h-2.7422Z"/>
          <path class="cls-1" d="M155.12059,8.35172h3.46791L166.868,27.38411h-4.73129l-1.63945-4.032h-7.3927l-1.58607,4.032h-4.62356Zm1.613,5.53778-2.31178,5.91387h4.65049Z"/>
          <path class="cls-1" d="M168.77726,8.35172h7.09645a17.96508,17.96508,0,0,1,2.48683.17505,6.78827,6.78827,0,0,1,2.24446.69878,4.30664,4.30664,0,0,1,1.613,1.46488,4.4931,4.4931,0,0,1,.618,2.5003,3.99045,3.99045,0,0,1-.90028,2.67439,4.95338,4.95338,0,0,1-2.37911,1.51923v.05338a5.455,5.455,0,0,1,1.70678.5242,4.56933,4.56933,0,0,1,1.31724.99454,4.2401,4.2401,0,0,1,.8469,1.4115,4.95822,4.95822,0,0,1,.29577,1.72025,4.57263,4.57263,0,0,1-.6454,2.51377,5.06565,5.06565,0,0,1-1.66638,1.626,7.30021,7.30021,0,0,1-2.29832.88729,12.294,12.294,0,0,1-2.54021.26884h-7.79571Zm4.19314,7.60766h3.038a4.24417,4.24417,0,0,0,.95414-.10772,2.63845,2.63845,0,0,0,.8469-.34915,1.82573,1.82573,0,0,0,.60452-.6454,1.93061,1.93061,0,0,0,.22891-.96761,1.75969,1.75969,0,0,0-.25536-.98107,1.7863,1.7863,0,0,0-.65886-.605,3.1521,3.1521,0,0,0-.91375-.30923,5.51029,5.51029,0,0,0-.995-.09378H172.9704Zm0,7.8765h3.76367a4.63619,4.63619,0,0,0,.98108-.10772,2.59461,2.59461,0,0,0,.90076-.37608,2.13851,2.13851,0,0,0,.65838-.69926,2.01716,2.01716,0,0,0,.25537-1.0484,1.68253,1.68253,0,0,0-.33616-1.08881,2.13933,2.13933,0,0,0-.84642-.63144,4.354,4.354,0,0,0-1.10227-.29577,8.17653,8.17653,0,0,0-1.10227-.08079H172.9704Z"/>
          <path class="cls-1" d="M186.1423,8.35172h4.19362V27.38411H186.1423Z"/>
          <path class="cls-1" d="M194.31409,8.35172h4.19362V23.51319h7.76877v3.87092H194.31409Z"/>
          <path class="cls-1" d="M208.5344,8.35172H212.728V27.38411H208.5344Z"/>
          <path class="cls-1" d="M220.227,12.06153h-5.43006V8.35172h15.05374v3.70981h-5.43006V27.38411H220.227Z"/>
          <path class="cls-1" d="M236.65184,19.2657l-7.1508-10.914h5.2151l4.032,7.12386,4.27441-7.12386h4.97319l-7.1508,10.914v8.11841h-4.19313Z"/>
        </g>
        <g>
          <path class="cls-1" d="M269.498,13.00221a2.99075,2.99075,0,0,0-1.38408-.95415,4.97286,4.97286,0,0,0-1.6534-.30923,4.32794,4.32794,0,0,0-.94068.10773,3.59931,3.59931,0,0,0-.91423.33616,1.99378,1.99378,0,0,0-.69878.60452,1.53143,1.53143,0,0,0-.26883.91423,1.5153,1.5153,0,0,0,.64491,1.31723,6.11344,6.11344,0,0,0,1.62647.77957q.98108.32247,2.11028.64492a8.69675,8.69675,0,0,1,2.11027.91423,4.99992,4.99992,0,0,1,1.62647,1.58607,4.83487,4.83487,0,0,1,.64492,2.66093,6.11862,6.11862,0,0,1-.59154,2.76913,5.61536,5.61536,0,0,1-1.59905,1.96215,6.8113,6.8113,0,0,1-2.33871,1.15613,10.29365,10.29365,0,0,1-2.80954.37608,10.18256,10.18256,0,0,1-3.44049-.5646,8.61087,8.61087,0,0,1-2.95718-1.828L261.649,22.196a4.35106,4.35106,0,0,0,1.626,1.3307,4.57464,4.57464,0,0,0,3.06442.34963,3.38439,3.38439,0,0,0,.94115-.36309,2.02318,2.02318,0,0,0,.67185-.61847,1.54006,1.54006,0,0,0,.25537-.88681,1.61011,1.61011,0,0,0-.65838-1.35764,6.09731,6.09731,0,0,0-1.6534-.8469q-.99479-.34914-2.15067-.69877a9.637,9.637,0,0,1-2.1502-.94068,5.18613,5.18613,0,0,1-1.6534-1.55914,4.46124,4.46124,0,0,1-.65838-2.55417,5.718,5.718,0,0,1,.60452-2.68786,5.8419,5.8419,0,0,1,1.613-1.9357,7.01662,7.01662,0,0,1,2.32525-1.16911,9.52465,9.52465,0,0,1,2.71527-.39,10.68579,10.68579,0,0,1,3.11828.45687A7.20793,7.20793,0,0,1,272.37441,9.857Z"/>
          <path class="cls-1" d="M287.96583,13.298a4.11667,4.11667,0,0,0-1.51923-1.15565,5.05251,5.05251,0,0,0-2.08334-.40349,5.21008,5.21008,0,0,0-3.93777,1.7342,5.93784,5.93784,0,0,0-1.15613,1.94868,7.43167,7.43167,0,0,0,0,4.90586,6.10982,6.10982,0,0,0,1.14266,1.93571,5.16607,5.16607,0,0,0,1.70679,1.27684,4.93282,4.93282,0,0,0,2.11027.45687,4.725,4.725,0,0,0,2.28485-.53767,4.55034,4.55034,0,0,0,1.63993-1.50528l3.49437,2.60755a7.27379,7.27379,0,0,1-3.06442,2.49982,9.48107,9.48107,0,0,1-3.81706.8065,11.73141,11.73141,0,0,1-4.11283-.69877,9.41918,9.41918,0,0,1-3.25293-2.00255,9.08168,9.08168,0,0,1-2.13673-3.15868,10.7424,10.7424,0,0,1-.76659-4.13976,10.74059,10.74059,0,0,1,.76659-4.13975,9.08149,9.08149,0,0,1,2.13673-3.15868,9.42733,9.42733,0,0,1,3.25293-2.003,11.73141,11.73141,0,0,1,4.11283-.69878,10.06759,10.06759,0,0,1,1.67985.14812,9.09123,9.09123,0,0,1,1.72073.47034,7.682,7.682,0,0,1,1.62647.85989,6.48994,6.48994,0,0,1,1.39755,1.31724Z"/>
          <path class="cls-1" d="M300.19657,8.35172h3.46791L311.944,27.38411h-4.73128l-1.63946-4.032h-7.39269l-1.58608,4.032h-4.62356Zm1.613,5.53778-2.31178,5.91387h4.6505Z"/>
          <path class="cls-1" d="M313.85276,8.35172h5.6989l8.091,13.22576h.05386V8.35172h4.19362V27.38411H326.4062l-8.30644-13.54847h-.05386V27.38411h-4.19314Z"/>
          <path class="cls-1" d="M335.76105,8.35172H341.46l8.091,13.22576h.05386V8.35172h4.19362V27.38411h-5.48393l-8.30644-13.54847h-.05386V27.38411h-4.19314Z"/>
          <path class="cls-1" d="M357.83045,8.35172h12.93v3.87092h-8.73639v3.5487h8.25258v3.87092h-8.25258v3.87093h9.22019v3.87092h-13.4138Z"/>
          <path class="cls-1" d="M374.60444,8.35172h7.36528a13.011,13.011,0,0,1,2.75567.2823,6.53884,6.53884,0,0,1,2.28485.94116,4.69373,4.69373,0,0,1,1.55914,1.77411,6.00987,6.00987,0,0,1,.57806,2.78212,5.58755,5.58755,0,0,1-1.0484,3.42751,4.72048,4.72048,0,0,1-3.0649,1.78758l4.839,8.03761H384.8461l-3.97865-7.60767h-2.06987v7.60767h-4.19314Zm4.19314,7.8765h2.47336q.56412,0,1.19605-.0404a3.74483,3.74483,0,0,0,1.14267-.2419,1.97853,1.97853,0,0,0,.8469-.63193,1.924,1.924,0,0,0,.33568-1.20951,2.007,2.007,0,0,0-.29577-1.15565,1.97216,1.97216,0,0,0-.75264-.65886,3.35242,3.35242,0,0,0-1.0484-.30923,8.61142,8.61142,0,0,0-1.15565-.08032h-2.7422Z"/>
        </g>
      </g>
      <g>
        <path class="cls-1" d="M14.61478,34.81265,2.39943,29.86323,0,6.21758,14.61478,0,29.22955,6.21758,26.83012,29.86323ZM3.97919,28.678l10.63559,4.3085L25.25036,28.678,27.42112,7.28686,14.61478,1.839,1.80843,7.28686Z"/>
        <g>
          <path class="cls-1" d="M12.89345,12.07154a2.02462,2.02462,0,0,0-.74776-.569,2.48773,2.48773,0,0,0-1.02558-.19861,2.5663,2.5663,0,0,0-1.93882.85362,2.92862,2.92862,0,0,0-.569.95948,3.65746,3.65746,0,0,0,0,2.41509,3.00652,3.00652,0,0,0,.56255.95285,2.54613,2.54613,0,0,0,.84022.62866,2.42877,2.42877,0,0,0,1.039.225,2.3263,2.3263,0,0,0,1.1248-.26471,2.23867,2.23867,0,0,0,.80724-.741l1.72049,1.28366a3.5824,3.5824,0,0,1-1.50878,1.23067,4.66714,4.66714,0,0,1-1.87919.39707,5.77153,5.77153,0,0,1-2.02465-.34407,4.63055,4.63055,0,0,1-1.60138-.986,4.46916,4.46916,0,0,1-1.05208-1.555,5.29058,5.29058,0,0,1-.3772-2.0379,5.29194,5.29194,0,0,1,.3772-2.03806,4.472,4.472,0,0,1,1.05208-1.555,4.63939,4.63939,0,0,1,1.60138-.986,5.77495,5.77495,0,0,1,2.02465-.34407,4.96172,4.96172,0,0,1,.82712.07288,4.46636,4.46636,0,0,1,.847.23158,3.78125,3.78125,0,0,1,.80061.42342,3.19586,3.19586,0,0,1,.68829.64854Z"/>
          <path class="cls-1" d="M20.46323,11.92594a1.4718,1.4718,0,0,0-.68166-.4698,2.44556,2.44556,0,0,0-.81386-.15224,2.13516,2.13516,0,0,0-.46318.053,1.78436,1.78436,0,0,0-.44992.16533.981.981,0,0,0-.34407.29784.75413.75413,0,0,0-.13235.44992.74585.74585,0,0,0,.31756.64854,3.00256,3.00256,0,0,0,.80077.38367q.4829.15878,1.03883.31771a4.28657,4.28657,0,0,1,1.03882.44992,2.4611,2.4611,0,0,1,.80062.78074,2.37946,2.37946,0,0,1,.31771,1.31017,3.0141,3.0141,0,0,1-.29121,1.36317,2.7628,2.7628,0,0,1-.78737.96595,3.34733,3.34733,0,0,1-1.15145.56918,5.06608,5.06608,0,0,1-1.3829.18521,5.01349,5.01349,0,0,1-1.69383-.278A4.23938,4.23938,0,0,1,15.13,18.06645L16.59884,16.452a2.14173,2.14173,0,0,0,.80076.655,2.25123,2.25123,0,0,0,1.50863.17211,1.66516,1.66516,0,0,0,.46317-.17873.99772.99772,0,0,0,.33082-.30432.75963.75963,0,0,0,.12573-.43682.79279.79279,0,0,0-.32419-.66826,2.99863,2.99863,0,0,0-.81387-.41679q-.4899-.17188-1.0587-.34407a4.73842,4.73842,0,0,1-1.0587-.46333,2.54743,2.54743,0,0,1-.81387-.76748,2.19405,2.19405,0,0,1-.32434-1.25717,2.81359,2.81359,0,0,1,.29784-1.32341,2.87253,2.87253,0,0,1,.794-.95285,3.45294,3.45294,0,0,1,1.14468-.57566,4.68824,4.68824,0,0,1,1.33667-.192,5.26126,5.26126,0,0,1,1.53513.225,3.54479,3.54479,0,0,1,1.33666.75439Z"/>
          <path class="cls-1" d="M22.6518,17.868a1.23735,1.23735,0,0,1,.0926-.47643,1.17067,1.17067,0,0,1,.64839-.64853,1.27175,1.27175,0,0,1,.95284,0,1.17032,1.17032,0,0,1,.64854.64853,1.2719,1.2719,0,0,1,0,.95285,1.17059,1.17059,0,0,1-.64854.64838,1.27175,1.27175,0,0,1-.95284,0,1.17094,1.17094,0,0,1-.64839-.64838A1.23675,1.23675,0,0,1,22.6518,17.868Z"/>
        </g>
        <g>
          <path class="cls-1" d="M8.608,22.51177a.64183.64183,0,0,0-.29453-.23415,1.03049,1.03049,0,0,0-.38833-.07423.99176.99176,0,0,0-.23415.0274.6389.6389,0,0,0-.20373.08824.45988.45988,0,0,0-.14591.1569.4531.4531,0,0,0-.05511.22857.35723.35723,0,0,0,.13778.303,1.35614,1.35614,0,0,0,.34136.18175q.20373.077.44615.14862a1.81154,1.81154,0,0,1,.446.19831,1.1055,1.1055,0,0,1,.34151.33593.99919.99919,0,0,1,.13778.55623,1.22383,1.22383,0,0,1-.11565.5481,1.11845,1.11845,0,0,1-.31124.38819,1.34457,1.34457,0,0,1-.45444.23128,1.9018,1.9018,0,0,1-.54524.0771,2.04724,2.04724,0,0,1-.69942-.12106,1.34738,1.34738,0,0,1-.57822-.40761l.52326-.50669a.87265.87265,0,0,0,.33307.30009.93546.93546,0,0,0,.43788.10752.915.915,0,0,0,.24243-.03313.74763.74763,0,0,0,.22029-.09908.51741.51741,0,0,0,.15961-.168.44938.44938,0,0,0,.06068-.234.40789.40789,0,0,0-.13777-.33051A1.21953,1.21953,0,0,0,7.9306,23.985q-.20373-.07974-.446-.15148a1.88245,1.88245,0,0,1-.44616-.19545,1.08761,1.08761,0,0,1-.34151-.33052A.98508.98508,0,0,1,6.5593,22.754a1.05039,1.05039,0,0,1,.12392-.52325,1.13565,1.13565,0,0,1,.32495-.3662A1.42211,1.42211,0,0,1,7.468,21.647a1.97932,1.97932,0,0,1,.52867-.07153,1.92562,1.92562,0,0,1,.59764.09366,1.38566,1.38566,0,0,1,.52039.30838Z"/>
          <path class="cls-1" d="M10.5026,23.29928h.011a.77243.77243,0,0,1,.27269-.3001.869.869,0,0,1,.504-.13491,1.03654,1.03654,0,0,1,.44887.08808.849.849,0,0,1,.3001.23129.87516.87516,0,0,1,.16518.33051,1.5184,1.5184,0,0,1,.04954.391v1.66869h-.66088V24.23557q0-.11-.011-.24514a.88308.88308,0,0,0-.05782-.25327.47469.47469,0,0,0-.14591-.19831.419.419,0,0,0-.26984-.07981.63.63,0,0,0-.27811.05511.534.534,0,0,0-.18732.14862.59264.59264,0,0,0-.10736.21488.9538.9538,0,0,0-.03312.25327v1.443H9.84171V21.4103h.66089Z"/>
          <path class="cls-1" d="M12.96437,22.03263a.38015.38015,0,0,1,.11835-.27811.407.407,0,0,1,.3001-.11851.43741.43741,0,0,1,.30567.11294.38648.38648,0,0,1,0,.56722.43672.43672,0,0,1-.30567.11293.40683.40683,0,0,1-.3001-.11835A.38019.38019,0,0,1,12.96437,22.03263Zm.09351.89774h.66088v2.64352h-.66088Z"/>
          <path class="cls-1" d="M15.05166,24.48342a.67137.67137,0,0,0,.23144.46257.7232.7232,0,0,0,.47913.16533.78873.78873,0,0,0,.41574-.10194,1.15164,1.15164,0,0,0,.29468-.25613l.47372.35807a1.3426,1.3426,0,0,1-.51784.40746,1.52577,1.52577,0,0,1-.60019.12121,1.58927,1.58927,0,0,1-.5618-.09908,1.34579,1.34579,0,0,1-.45716-.281,1.33071,1.33071,0,0,1-.30567-.43788,1.495,1.495,0,0,1,0-1.14,1.33227,1.33227,0,0,1,.30567-.43788,1.34779,1.34779,0,0,1,.45716-.28082,1.58593,1.58593,0,0,1,.5618-.09908,1.283,1.283,0,0,1,.50383.09637,1.08013,1.08013,0,0,1,.391.27811,1.287,1.287,0,0,1,.25342.44887,1.90582,1.90582,0,0,1,.0908.61405v.18175Zm1.35489-.4957a.62238.62238,0,0,0-.18175-.45986.68215.68215,0,0,0-.49012-.1679.64245.64245,0,0,0-.47086.17061.76291.76291,0,0,0-.21216.45715Z"/>
          <path class="cls-1" d="M17.73915,21.4103H18.4v4.16359h-.66088Z"/>
          <path class="cls-1" d="M21.297,25.17742h-.011a.8504.8504,0,0,1-.38547.35235,1.24974,1.24974,0,0,1-.52326.11022,1.32718,1.32718,0,0,1-.548-.10736A1.22735,1.22735,0,0,1,19.419,25.238a1.25648,1.25648,0,0,1-.25884-.44058,1.64444,1.64444,0,0,1-.08824-.54524,1.55938,1.55938,0,0,1,.09366-.54524,1.35447,1.35447,0,0,1,.26156-.44058,1.20494,1.20494,0,0,1,.4049-.29468,1.23683,1.23683,0,0,1,.51768-.10736,1.27388,1.27388,0,0,1,.33036.03854,1.14438,1.14438,0,0,1,.25342.09908,1.02526,1.02526,0,0,1,.18732.1295.94561.94561,0,0,1,.12663.13492H21.264v-1.856h.66088v4.16359H21.297Zm-1.56418-.92529a.85837.85837,0,0,0,.0524.29739.74369.74369,0,0,0,.15419.25327.78082.78082,0,0,0,1.14,0,.746.746,0,0,0,.15419-.25327.8701.8701,0,0,0,0-.59478.74813.74813,0,0,0-.15419-.25342.78141.78141,0,0,0-1.14,0,.74577.74577,0,0,0-.15419.25342A.85837.85837,0,0,0,19.73279,24.25213Z"/>
        </g>
      </g>
    </g>
  </g>
</svg>
