<svg xmlns="http://www.w3.org/2000/svg" viewBox="0 0 318.31914 65.04626">
  <defs>
    <style>
      .cls-1 {
        fill: #1a1718;
      }
    </style>
  </defs>
  <g id="Layer_2" data-name="Layer 2">
    <g id="Layer_1-2" data-name="Layer 1">
      <g>
        <g>
          <path class="cls-1" d="M27.308,65.04626,4.4832,55.799,0,11.61734,27.308,0l27.308,11.61734L50.13267,55.799ZM7.436,53.58439l19.872,8.05093,19.8718-8.05093L51.236,13.61479,27.308,3.43555,3.38011,13.61479Z"/>
          <g>
            <path class="cls-1" d="M24.092,22.55493a3.78274,3.78274,0,0,0-1.39719-1.06322,4.648,4.648,0,0,0-1.91628-.37111,4.795,4.795,0,0,0-3.62268,1.595,5.47235,5.47235,0,0,0-1.06323,1.79277,6.83413,6.83413,0,0,0,0,4.51259,5.618,5.618,0,0,0,1.05113,1.78039A4.75708,4.75708,0,0,0,18.71366,31.976a4.538,4.538,0,0,0,1.94132.42034,4.34666,4.34666,0,0,0,2.1017-.49461A4.18273,4.18273,0,0,0,24.265,30.51717l3.21472,2.39852a6.69369,6.69369,0,0,1-2.81914,2.29948,8.72055,8.72055,0,0,1-3.51126.74192,10.78436,10.78436,0,0,1-3.783-.64288,8.65236,8.65236,0,0,1-2.99217-1.84229,8.351,8.351,0,0,1-1.9658-2.90552,9.88541,9.88541,0,0,1-.70478-3.8078,9.8879,9.8879,0,0,1,.70478-3.80809A8.35621,8.35621,0,0,1,14.3741,20.045a8.66918,8.66918,0,0,1,2.99217-1.84229,10.79052,10.79052,0,0,1,3.783-.64289,9.27113,9.27113,0,0,1,1.54546.13618,8.34566,8.34566,0,0,1,1.5826.43271,7.06407,7.06407,0,0,1,1.49594.79116,5.97123,5.97123,0,0,1,1.28606,1.21178Z"/>
            <path class="cls-1" d="M38.23605,22.28286a2.75,2.75,0,0,0-1.27367-.87781,4.5696,4.5696,0,0,0-1.5207-.28445,3.98977,3.98977,0,0,0-.86544.099,3.3351,3.3351,0,0,0-.84068.30892,1.833,1.833,0,0,0-.64289.55651,1.40914,1.40914,0,0,0-.2473.84068,1.39358,1.39358,0,0,0,.59337,1.21178,5.60975,5.60975,0,0,0,1.49622.71688q.9023.29668,1.941.59365a8.009,8.009,0,0,1,1.94105.84068A4.59859,4.59859,0,0,1,40.313,27.74755a4.446,4.446,0,0,1,.59365,2.448,5.63175,5.63175,0,0,1-.54413,2.54708,5.16235,5.16235,0,0,1-1.47119,1.80486A6.25435,6.25435,0,0,1,36.73983,35.611a9.46555,9.46555,0,0,1-2.58393.34606,9.36786,9.36786,0,0,1-3.16492-.51937,7.921,7.921,0,0,1-2.7201-1.68136l2.74458-3.01664a4.00193,4.00193,0,0,0,1.49622,1.22387,4.20652,4.20652,0,0,0,2.81886.32159,3.11167,3.11167,0,0,0,.86544-.334,1.86458,1.86458,0,0,0,.61813-.56862,1.41936,1.41936,0,0,0,.23492-.8162,1.48132,1.48132,0,0,0-.60574-1.24863,5.60336,5.60336,0,0,0-1.52071-.77878q-.91538-.32116-1.97818-.64289a8.8543,8.8543,0,0,1-1.97818-.86572,4.75992,4.75992,0,0,1-1.5207-1.434,4.09958,4.09958,0,0,1-.606-2.349,5.25725,5.25725,0,0,1,.55651-2.4728,5.36756,5.36756,0,0,1,1.48357-1.78039,6.45178,6.45178,0,0,1,2.13883-1.0756,8.75987,8.75987,0,0,1,2.49755-.35873,9.83054,9.83054,0,0,1,2.86838.42034,6.62351,6.62351,0,0,1,2.49755,1.40957Z"/>
            <path class="cls-1" d="M42.32537,33.38554a2.31162,2.31162,0,0,1,.173-.89019,2.18727,2.18727,0,0,1,1.21149-1.21178,2.37643,2.37643,0,0,1,1.78039,0,2.18659,2.18659,0,0,1,1.21178,1.21178,2.37643,2.37643,0,0,1,0,1.78039,2.18733,2.18733,0,0,1-1.21178,1.2115,2.37643,2.37643,0,0,1-1.78039,0,2.188,2.188,0,0,1-1.21149-1.2115A2.31062,2.31062,0,0,1,42.32537,33.38554Z"/>
          </g>
          <g>
            <path class="cls-1" d="M16.08472,42.06241a1.19932,1.19932,0,0,0-.55033-.4375,1.92559,1.92559,0,0,0-.7256-.1387,1.85315,1.85315,0,0,0-.4375.0512,1.19417,1.19417,0,0,0-.38067.16487.85948.85948,0,0,0-.27263.29317.84659.84659,0,0,0-.103.42709.66751.66751,0,0,0,.25743.56608,2.53421,2.53421,0,0,0,.63783.33959q.38065.14391.83364.27769a3.38517,3.38517,0,0,1,.83336.37054,2.06579,2.06579,0,0,1,.63811.6277,1.86691,1.86691,0,0,1,.25743,1.03931,2.2868,2.2868,0,0,1-.21608,1.02412,2.09,2.09,0,0,1-.58155.72532,2.51244,2.51244,0,0,1-.84912.43216,3.55376,3.55376,0,0,1-1.01877.14405,3.82519,3.82519,0,0,1-1.30687-.22621A2.51744,2.51744,0,0,1,12.02,46.98127l.97769-.94674a1.63079,1.63079,0,0,0,.62235.56073,1.748,1.748,0,0,0,.81817.20089,1.70938,1.70938,0,0,0,.453-.0619,1.3973,1.3973,0,0,0,.41161-.18513.96686.96686,0,0,0,.29823-.314.83951.83951,0,0,0,.11339-.43722.76216.76216,0,0,0-.25744-.61756,2.27858,2.27858,0,0,0-.6381-.3652q-.38067-.149-.83336-.283a3.51651,3.51651,0,0,1-.83365-.36519,2.03185,2.03185,0,0,1-.6381-.61757,1.84064,1.84064,0,0,1-.25716-1.03424,1.96247,1.96247,0,0,1,.23156-.9777,2.12193,2.12193,0,0,1,.60715-.68424,2.65715,2.65715,0,0,1,.85925-.40656,3.69929,3.69929,0,0,1,.98782-.13364,3.598,3.598,0,0,1,1.11668.175,2.58908,2.58908,0,0,1,.97235.57621Z"/>
            <path class="cls-1" d="M19.62468,43.53388h.02054a1.44321,1.44321,0,0,1,.50952-.56073,1.62368,1.62368,0,0,1,.94168-.25209,1.93658,1.93658,0,0,1,.83871.16459,1.58611,1.58611,0,0,1,.56074.43215,1.63513,1.63513,0,0,1,.30864.61757,2.83763,2.83763,0,0,1,.09256.73067V47.784H21.66222V45.28332q0-.20553-.02054-.458a1.64983,1.64983,0,0,0-.108-.47323.88692.88692,0,0,0-.27262-.37054.78281.78281,0,0,0-.50419-.14912,1.17722,1.17722,0,0,0-.51965.103.99747.99747,0,0,0-.35.27769,1.10706,1.10706,0,0,0-.20061.40149,1.78214,1.78214,0,0,0-.06189.47323V47.784H18.38983V40.00433h1.23485Z"/>
            <path class="cls-1" d="M24.22449,41.16715a.71032.71032,0,0,1,.22114-.51965.76032.76032,0,0,1,.56073-.22143.81731.81731,0,0,1,.57114.211.72215.72215,0,0,1,0,1.05985.81608.81608,0,0,1-.57114.211.7601.7601,0,0,1-.56073-.22114A.71032.71032,0,0,1,24.22449,41.16715Zm.17472,1.67742h1.23485V47.784H24.39921Z"/>
            <path class="cls-1" d="M28.12458,45.74642a1.25438,1.25438,0,0,0,.43243.86431,1.35131,1.35131,0,0,0,.89526.30893,1.47382,1.47382,0,0,0,.77681-.19048,2.15184,2.15184,0,0,0,.55061-.47857l.88513.669a2.50875,2.50875,0,0,1-.96757.76133,2.85089,2.85089,0,0,1-1.12146.22649,2.97,2.97,0,0,1-1.04973-.18513,2.51435,2.51435,0,0,1-.85418-.525,2.48655,2.48655,0,0,1-.57114-.81817,2.79339,2.79339,0,0,1,0-2.13011,2.48956,2.48956,0,0,1,.57114-.81817,2.5184,2.5184,0,0,1,.85418-.52472,2.96378,2.96378,0,0,1,1.04973-.18512,2.39736,2.39736,0,0,1,.9414.18006,2.0185,2.0185,0,0,1,.73067.51966,2.40489,2.40489,0,0,1,.47351.8387,3.56111,3.56111,0,0,1,.16965,1.14735v.33959Zm2.53159-.9262a1.16294,1.16294,0,0,0-.33959-.85925,1.27463,1.27463,0,0,0-.91579-.31371,1.20041,1.20041,0,0,0-.87979.31877,1.42549,1.42549,0,0,0-.39642.85419Z"/>
            <path class="cls-1" d="M33.14613,40.00433H34.381V47.784H33.14613Z"/>
            <path class="cls-1" d="M39.7939,47.04317h-.02054a1.589,1.589,0,0,1-.72026.65836,2.33507,2.33507,0,0,1-.9777.206,2.4799,2.4799,0,0,1-1.02383-.2006,2.29328,2.29328,0,0,1-.76669-.55061,2.34751,2.34751,0,0,1-.48364-.82323,3.07226,3.07226,0,0,1-.16487-1.01877,2.9136,2.9136,0,0,1,.175-1.01877,2.53078,2.53078,0,0,1,.48871-.82324,2.25169,2.25169,0,0,1,.75655-.5506,2.31133,2.31133,0,0,1,.96729-.2006,2.3797,2.3797,0,0,1,.61728.072,2.13771,2.13771,0,0,1,.47351.18513,1.91554,1.91554,0,0,1,.35.242,1.76906,1.76906,0,0,1,.23661.25209h.031V40.00433h1.23485V47.784H39.7939Zm-2.92268-1.7289a1.60416,1.60416,0,0,0,.09791.55567,1.3896,1.3896,0,0,0,.2881.47323,1.45892,1.45892,0,0,0,2.13011,0,1.39417,1.39417,0,0,0,.28811-.47323,1.62576,1.62576,0,0,0,0-1.11134,1.398,1.398,0,0,0-.28811-.47351,1.46006,1.46006,0,0,0-2.13011,0,1.39338,1.39338,0,0,0-.2881.47351A1.60416,1.60416,0,0,0,36.87122,45.31427Z"/>
          </g>
        </g>
        <g>
          <path class="cls-1" d="M68.47134,4.36292h5.67739l5.58209,14.80035h.06391L85.47268,4.36292h5.32644L81.48556,26.94635H77.49787Z"/>
          <path class="cls-1" d="M112.20245,18.23825a10.90314,10.90314,0,0,1-.606,3.70008,8.15242,8.15242,0,0,1-1.80211,2.93485,8.25412,8.25412,0,0,1-2.98278,1.94534,12.50506,12.50506,0,0,1-8.26128,0A8.24687,8.24687,0,0,1,95.568,24.87318a8.12871,8.12871,0,0,1-1.80211-2.93485,10.87531,10.87531,0,0,1-.606-3.70008V4.36292h4.97549V18.04708a5.50161,5.50161,0,0,0,.335,1.94591,4.65832,4.65832,0,0,0,.941,1.547,4.26558,4.26558,0,0,0,1.45173,1.02032,4.548,4.548,0,0,0,1.83406.36693,4.44459,4.44459,0,0,0,1.81809-.36693A4.31214,4.31214,0,0,0,105.95042,21.54a4.65832,4.65832,0,0,0,.941-1.547,5.50161,5.50161,0,0,0,.335-1.94591V4.36292h4.97606Z"/>
          <path class="cls-1" d="M116.98677,4.36292h4.97606V22.3532h9.21827v4.59315H116.98677Z"/>
          <path class="cls-1" d="M133.9242,4.36292h6.76219l9.6006,15.69341h.06392V4.36292H155.327V26.94635h-6.50711L138.96361,10.87h-.06392V26.94635H133.9242Z"/>
          <path class="cls-1" d="M160.11128,4.36292h15.34247V8.95607H165.08734v4.21082h9.79234V17.76h-9.79234V22.3532h10.94049v4.59315H160.11128Z"/>
          <path class="cls-1" d="M180.015,4.36292h8.73949a15.4383,15.4383,0,0,1,3.26982.335,7.7588,7.7588,0,0,1,2.71115,1.11676,5.56945,5.56945,0,0,1,1.85,2.10512,7.1313,7.1313,0,0,1,.68592,3.30121,6.63012,6.63012,0,0,1-1.244,4.067,5.60121,5.60121,0,0,1-3.63675,2.1211l5.74187,9.53726h-5.965l-4.721-9.0271h-2.45607v9.0271H180.015Zm4.97549,9.34609h2.93485q.66936,0,1.4192-.04794a4.44318,4.44318,0,0,0,1.35586-.287,2.34758,2.34758,0,0,0,1.00491-.74983,2.28287,2.28287,0,0,0,.39832-1.43518,2.38159,2.38159,0,0,0-.35095-1.37127,2.34025,2.34025,0,0,0-.89307-.78179,3.97832,3.97832,0,0,0-1.244-.36693,10.21983,10.21983,0,0,0-1.37127-.09529h-3.25384Z"/>
          <path class="cls-1" d="M208.11542,4.36292h4.11495l9.82429,22.58343h-5.61405L214.49527,22.162h-8.772l-1.882,4.78432H198.355Zm1.914,6.571-2.74311,7.01727h5.51818Z"/>
          <path class="cls-1" d="M224.32013,4.36292h8.4205a21.31794,21.31794,0,0,1,2.95083.20771,8.05474,8.05474,0,0,1,2.66321.82916,5.11011,5.11011,0,0,1,1.914,1.73819,5.33142,5.33142,0,0,1,.73328,2.96681,4.735,4.735,0,0,1-1.06825,3.17338,5.87762,5.87762,0,0,1-2.823,1.80268v.06334a6.47266,6.47266,0,0,1,2.02523.622,5.422,5.422,0,0,1,1.563,1.18011,5.03115,5.03115,0,0,1,1.00491,1.67485,5.88329,5.88329,0,0,1,.35095,2.04121,5.4258,5.4258,0,0,1-.76581,2.98278,6.01075,6.01075,0,0,1-1.9773,1.92937,8.66212,8.66212,0,0,1-2.72713,1.05285,14.58859,14.58859,0,0,1-3.01417.319h-9.25022ZM229.29562,13.39h3.60479a5.03589,5.03589,0,0,0,1.13217-.12782,3.131,3.131,0,0,0,1.00491-.41429,2.16633,2.16633,0,0,0,.71731-.76582,2.29084,2.29084,0,0,0,.27163-1.14814,2.088,2.088,0,0,0-.303-1.16412,2.11933,2.11933,0,0,0-.78179-.71788,3.74019,3.74019,0,0,0-1.08423-.36693,6.53882,6.53882,0,0,0-1.18067-.11127h-3.3811Zm0,9.34609h4.4659a5.501,5.501,0,0,0,1.16412-.12782,3.07867,3.07867,0,0,0,1.06883-.44625,2.53758,2.53758,0,0,0,.78122-.82973,2.39352,2.39352,0,0,0,.303-1.244,1.9964,1.9964,0,0,0-.39888-1.29195,2.5385,2.5385,0,0,0-1.00434-.74926,5.16685,5.16685,0,0,0-1.30793-.351,9.702,9.702,0,0,0-1.30793-.09587h-3.764Z"/>
          <path class="cls-1" d="M244.92513,4.36292h4.97605V26.94635h-4.97605Z"/>
          <path class="cls-1" d="M254.62159,4.36292h4.97606V22.3532h9.21826v4.59315H254.62159Z"/>
          <path class="cls-1" d="M271.49511,4.36292h4.97606V26.94635h-4.97606Z"/>
          <path class="cls-1" d="M285.3693,8.7649h-6.4432v-4.402h17.86246v4.402h-6.4432V26.94635H285.3693Z"/>
          <path class="cls-1" d="M304.85867,17.31322l-8.485-12.9503h6.18812l4.78432,8.453,5.07193-8.453h5.90108l-8.485,12.9503v9.63313h-4.97549Z"/>
          <path class="cls-1" d="M81.8679,43.77307a3.54873,3.54873,0,0,0-1.64233-1.13216,5.90052,5.90052,0,0,0-1.96189-.36693,5.13612,5.13612,0,0,0-1.11619.12782,4.27068,4.27068,0,0,0-1.08481.39889,2.36576,2.36576,0,0,0-.82915.7173,1.81717,1.81717,0,0,0-.319,1.08481,1.798,1.798,0,0,0,.76524,1.563,7.25427,7.25427,0,0,0,1.92993.925q1.16413.38262,2.504.76524a10.31991,10.31991,0,0,1,2.504,1.0848,5.93293,5.93293,0,0,1,1.92993,1.882,5.73694,5.73694,0,0,1,.76524,3.1574,7.26025,7.26025,0,0,1-.7019,3.2858,6.66321,6.66321,0,0,1-1.8974,2.32825,8.08224,8.08224,0,0,1-2.77507,1.37184,12.21453,12.21453,0,0,1-3.33373.44624,12.08236,12.08236,0,0,1-4.08242-.66994,10.21756,10.21756,0,0,1-3.50892-2.169l3.54087-3.89126a5.163,5.163,0,0,0,1.92937,1.579,5.42821,5.42821,0,0,0,3.63617.41486,4.01524,4.01524,0,0,0,1.11676-.43084,2.40064,2.40064,0,0,0,.7972-.73386,1.82732,1.82732,0,0,0,.303-1.05227,1.91052,1.91052,0,0,0-.78121-1.61095,7.235,7.235,0,0,0-1.9619-1.00491q-1.18038-.41428-2.55194-.82915a11.43509,11.43509,0,0,1-2.55137-1.11619,6.15353,6.15353,0,0,1-1.96189-1.85,5.29364,5.29364,0,0,1-.78122-3.03072,6.7848,6.7848,0,0,1,.71731-3.18936,6.93173,6.93173,0,0,1,1.914-2.29686,8.3259,8.3259,0,0,1,2.75909-1.38725,11.302,11.302,0,0,1,3.22189-.46279,12.67944,12.67944,0,0,1,3.70008.54211A8.55249,8.55249,0,0,1,85.281,40.041Z"/>
          <path class="cls-1" d="M103.78139,44.124a4.88485,4.88485,0,0,0-1.80268-1.37127,5.99521,5.99521,0,0,0-2.47206-.47877,6.18217,6.18217,0,0,0-4.67247,2.05776A7.046,7.046,0,0,0,93.46234,46.644a8.81837,8.81837,0,0,0,0,5.82119,7.24989,7.24989,0,0,0,1.35586,2.29686,6.12973,6.12973,0,0,0,2.02524,1.51507,5.853,5.853,0,0,0,2.504.54212,5.60671,5.60671,0,0,0,2.71116-.638,5.39963,5.39963,0,0,0,1.94591-1.78614l4.14633,3.09406a8.63076,8.63076,0,0,1-3.63617,2.96624,11.25014,11.25014,0,0,1-4.52924.957,13.92016,13.92016,0,0,1-4.88019-.82915,11.1765,11.1765,0,0,1-3.85987-2.37618,10.77605,10.77605,0,0,1-2.53539-3.748,13.71816,13.71816,0,0,1,0-9.8243,10.77615,10.77615,0,0,1,2.53539-3.748A11.18636,11.18636,0,0,1,95.10524,38.51a13.92016,13.92016,0,0,1,4.88019-.82915,11.94441,11.94441,0,0,1,1.99328.17576,10.787,10.787,0,0,1,2.04178.55809,9.11581,9.11581,0,0,1,1.92993,1.02032,7.70137,7.70137,0,0,1,1.65831,1.563Z"/>
          <path class="cls-1" d="M118.29413,38.2549h4.115l9.82429,22.58343h-5.614L124.674,56.054h-8.772l-1.882,4.78432h-5.48622Zm1.914,6.571L117.465,51.84319h5.51817Z"/>
          <path class="cls-1" d="M134.49828,38.2549h6.76219l9.6006,15.69342h.06391V38.2549H155.901V60.83833h-6.50711L139.53768,44.762h-.06391V60.83833h-4.97549Z"/>
          <path class="cls-1" d="M160.49419,38.2549h6.76219l9.6006,15.69342h.06391V38.2549H181.897V60.83833h-6.50711L165.53359,44.762h-.06391V60.83833h-4.97549Z"/>
          <path class="cls-1" d="M186.68127,38.2549h15.34247v4.59315H191.65733v4.21082h9.79234V51.652h-9.79234v4.59316h10.94048v4.59315H186.68127Z"/>
          <path class="cls-1" d="M206.58494,38.2549h8.73948a15.43882,15.43882,0,0,1,3.26982.335,7.75893,7.75893,0,0,1,2.71116,1.11676,5.56945,5.56945,0,0,1,1.85,2.10512,7.1313,7.1313,0,0,1,.68592,3.30121,6.63006,6.63006,0,0,1-1.244,4.067,5.60122,5.60122,0,0,1-3.63674,2.12111l5.74187,9.53725h-5.965l-4.721-9.02709h-2.45608v9.02709h-4.97548Zm4.97548,9.34609h2.93485q.66938,0,1.4192-.04794a4.44325,4.44325,0,0,0,1.35587-.287,2.3476,2.3476,0,0,0,1.00491-.74984,2.28293,2.28293,0,0,0,.39831-1.43518,2.38151,2.38151,0,0,0-.351-1.37127,2.34023,2.34023,0,0,0-.89306-.78179,3.978,3.978,0,0,0-1.244-.36692,10.21823,10.21823,0,0,0-1.37127-.0953h-3.25384Z"/>
        </g>
      </g>
    </g>
  </g>
</svg>
