<?xml version="1.0" encoding="utf-8"?>
<!-- Generator: Adobe Illustrator 25.2.3, SVG Export Plug-In . SVG Version: 6.00 Build 0)  -->
<svg version="1.1"
	 id="svg3207" xmlns:cc="http://creativecommons.org/ns#" xmlns:dc="http://purl.org/dc/elements/1.1/" xmlns:rdf="http://www.w3.org/1999/02/22-rdf-syntax-ns#" xmlns:svg="http://www.w3.org/2000/svg"
	 xmlns="http://www.w3.org/2000/svg" xmlns:xlink="http://www.w3.org/1999/xlink" x="0px" y="0px"
	 viewBox="0 0 1192.0999756 293.3999939" style="enable-background:new 0 0 1192.0999756 293.3999939;" xml:space="preserve">
<style type="text/css">
	.st0{fill:#231F20;}
</style>
<g>
	<path class="st0" d="M0.6,61h18l17.7000027,46.8000031h0.2000008l18-46.7999992h16.7999992l-29.5,71.4000092H29.1000004L0.6,61z"/>
	<path class="st0" d="M120.1999969,132.3999939h-14.5v-6.6999969H105.5c-0.5,0.9000015-1.1999969,1.9000015-2.0999985,2.8000031
		c-0.8000031,0.8999939-1.9000015,1.8000031-3.0999985,2.5s-2.5999985,1.3000031-4.0999985,1.8000031
		s-3.1999969,0.6999969-5,0.6999969c-3.8000031,0-6.9000015-0.6000061-9.3000031-1.8000031s-4.1999969-2.8000031-5.5-4.9000015
		s-2.1999969-4.5-2.5999985-7.4000015c-0.4000015-2.8000031-0.6999969-5.9000015-0.6999969-9.1999969v-27h15.0999985v24
		c0,1.4000015,0.0999985,2.9000015,0.1999969,4.4000015s0.4000015,2.9000015,0.9000015,4.1999969
		c0.5,1.3000031,1.3000031,2.3000031,2.3000031,3.0999985c1,0.8000031,2.5,1.1999969,4.5,1.1999969
		c1.9000015,0,3.5-0.4000015,4.6999969-1.0999985s2.0999985-1.5999985,2.8000031-2.8000031
		c0.5999985-1.1999969,1.0999985-2.5,1.3000031-4c0.1999969-1.5,0.3000031-3,0.3000031-4.5999985V83.4000015h15.0999985v48.9999924
		H120.1999969z"/>
	<path class="st0" d="M131.1000061,56.2000008h15.1000061V132.5h-15.1000061V56.2000008z"/>
	<path class="st0" d="M157.1000061,83.4000015h14.5v6.6999969h0.1999969c0.5-0.9000015,1.1000061-1.9000015,2-2.8000031
		s1.8999939-1.8000031,3.1000061-2.5c1.1999969-0.6999969,2.6000061-1.3000031,4.1000061-1.8000031s3.1999969-0.6999969,5-0.6999969
		c3.8000031,0,6.8999939,0.5999985,9.3000031,1.8000031c2.3999939,1.1999969,4.1999969,2.8000031,5.5,4.9000015
		s2.1999969,4.5,2.6999969,7.4000015c0.5,2.8000031,0.6999969,5.9000015,0.6999969,9.1999969v27.0000076h-15.1000061v-24
		c0-1.4000015-0.1000061-2.9000015-0.1999969-4.4000015s-0.3999939-2.9000015-0.8999939-4.1999969
		c-0.5-1.3000031-1.3000031-2.3000031-2.3000031-3.0999985c-1-0.8000031-2.5-1.1999969-4.5-1.1999969
		s-3.5,0.4000015-4.6999969,1.0999985s-2.1000061,1.5999985-2.8000031,2.8000031c-0.6000061,1.1999969-1.1000061,2.5-1.3000031,4
		s-0.3000031,3-0.3000031,4.5999985v24.3999939H157V83.4000015H157.1000061z"/>
	<path class="st0" d="M261.3999939,124c-2.3999939,3.0999985-5.5,5.5-9.1999969,7.1999969s-7.5,2.5-11.5,2.5
		c-3.8000031,0-7.3000031-0.6000061-10.6000061-1.8000031S223.8999939,129,221.3999939,126.6999969
		s-4.3999939-5-5.8000031-8.0999985c-1.3999939-3.1999969-2.1000061-6.6999969-2.1000061-10.5999985
		s0.6999969-7.4000015,2.1000061-10.5999985c1.3999939-3.1999969,3.3000031-5.9000015,5.8000031-8.0999985
		c2.5-2.3000031,5.3000031-4,8.6999969-5.1999969c3.3000031-1.1999969,6.8999939-1.8000031,10.6000061-1.8000031
		c3.5,0,6.6999969,0.5999985,9.5,1.8000031C253.0999908,85.3000031,255.5,87.0000076,257.5,89.3000031
		c2,2.3000031,3.5,5,4.6000061,8.0999985c1.1000061,3.1999969,1.6000061,6.6999969,1.6000061,10.5999985v4.6999969h-35.1000061
		c0.6000061,2.9000015,1.8999939,5.1999969,3.8999939,6.9000015s4.5,2.5999985,7.5,2.5999985
		c2.5,0,4.6000061-0.5999985,6.3000031-1.6999969s3.1999969-2.5,4.5-4.3000031L261.3999939,124z M248.6000061,102.4000015
		c0.1000061-2.5999985-0.8000031-4.6999969-2.5-6.5999985c-1.6999969-1.8000031-4-2.6999969-6.8000031-2.6999969
		c-1.6999969,0-3.1999969,0.3000031-4.3999939,0.8000031c-1.3000031,0.5-2.3999939,1.1999969-3.3000031,2.0999985
		C230.7000122,96.8000107,230,97.8000107,229.5,98.9000092s-0.8000031,2.3000031-0.8999939,3.5
		C228.6000061,102.4000092,248.6000061,102.4000092,248.6000061,102.4000015z"/>
	<path class="st0" d="M272.8999939,83.4000015H288v7.9000015h0.2000122c1.6000061-3,3.5-5.3000031,5.7000122-6.8000031
		s5-2.3000031,8.3999939-2.3000031c0.8999939,0,1.7000122,0,2.6000061,0.0999985s1.7000122,0.1999969,2.3999939,0.4000015V96.5
		c-1.1000061-0.3000031-2.1000061-0.5999985-3.2000122-0.8000031c-1-0.1999969-2.1000061-0.3000031-3.2999878-0.3000031
		c-2.8999939,0-5.2000122,0.4000015-6.8999939,1.1999969c-1.7000122,0.8000031-3,1.9000015-3.8999939,3.4000015
		c-0.8999939,1.4000015-1.5,3.1999969-1.7999878,5.1999969s-0.3999939,4.1999969-0.3999939,6.6999969v20.5000076h-15.1000061
		V83.4000015H272.8999939z"/>
	<path class="st0" d="M344.7999878,126.3000031h-0.2000122c-1.7000122,2.6000061-3.8999939,4.5-6.7000122,5.6000061
		c-2.7999878,1.1000061-5.7000122,1.6999969-8.7999878,1.6999969c-2.2999878,0-4.5-0.3000031-6.6000061-1
		s-4-1.6000061-5.6000061-2.8999939c-1.6000061-1.3000031-2.8999939-2.9000015-3.7999878-4.6999969
		c-0.8999939-1.9000015-1.3999939-4.0999985-1.3999939-6.5999985c0-2.8000031,0.5-5.1999969,1.6000061-7.1999969
		c1-1.9000015,2.5-3.5999985,4.2000122-4.8000031c1.7999878-1.3000031,3.7999878-2.3000031,6.1000061-3
		c2.2999878-0.6999969,4.7000122-1.1999969,7.1000061-1.5999985c2.5-0.3000031,4.8999939-0.5,7.3999939-0.5999985
		s4.7000122-0.0999985,6.7999878-0.0999985c0-2.6999969-1-4.8000031-2.8999939-6.4000015s-4.2000122-2.4000015-6.7999878-2.4000015
		c-2.5,0-4.7999878,0.5-6.7999878,1.5999985c-2.1000061,1-3.8999939,2.5-5.5,4.3000031l-8.1000061-8.3000031
		c2.7999878-2.5999985,6.1000061-4.5999985,9.8999939-5.9000015s7.7000122-2,11.7000122-2
		c4.3999939,0,8.1000061,0.5999985,10.8999939,1.6999969c2.8999939,1.0999985,5.1000061,2.6999969,6.8999939,4.9000015
		c1.7000122,2.1999969,2.8999939,4.8000031,3.6000061,7.9000015s1,6.6999969,1,10.8000031v24.8999939h-13.8999939v-5.9000092
		H344.7999878z M341,110.9000015c-1.1000061,0-2.6000061,0-4.2999878,0.1999969C335,111.1999969,333.3000183,111.5,331.8000183,112
		c-1.6000061,0.5-2.8999939,1.1999969-4,2.0999985S326.1000061,116.4000015,326.1000061,118
		c0,1.8000031,0.7999878,3.1999969,2.2999878,4c1.5,0.9000015,3.2000122,1.3000031,4.7999878,1.3000031
		c1.5,0,2.8999939-0.1999969,4.2999878-0.5999985s2.6000061-1,3.7000122-1.6999969s1.8999939-1.6999969,2.6000061-2.8000031
		c0.6000061-1.0999985,1-2.5,1-4v-3.1999969H341V110.9000015z"/>
	<path class="st0" d="M369.6000061,56.2000008h15.1000061v32.4999962h0.2000122c1.7000122-2.4000015,4-4,6.7000122-5
		s5.7000122-1.5,8.7999878-1.5c3.5,0,6.6000061,0.6999969,9.3999939,2.1999969c2.7999878,1.4000015,5.1000061,3.4000015,7,5.8000031
		s3.3999939,5.1999969,4.3999939,8.3000031c1,3.0999985,1.6000061,6.4000015,1.6000061,9.8000031
		c0,3.6999969-0.6000061,7.0999985-1.7000122,10.1999969s-2.7999878,5.8000031-4.8999939,8
		c-2.1000061,2.3000031-4.7000122,4-7.6000061,5.1999969c-3,1.1999969-6.2999878,1.8999939-9.8999939,1.8999939
		c-1.7000122,0-3.3999939-0.1999969-4.8999939-0.6999969s-3-1.1000061-4.2999878-1.8000031s-2.5-1.6000061-3.3999939-2.5
		c-1-0.9000015-1.7999878-1.8000031-2.3999939-2.6999969h-0.2000122v6.5h-13.8999939V56.2000008H369.6000061z M383.5,107.9000015
		c0,3.6999969,1.1000061,6.6999969,3.2000122,9s5.1000061,3.4000015,8.8999939,3.4000015s6.7999878-1.0999985,8.8999939-3.4000015
		s3.2000122-5.3000031,3.2000122-9s-1.1000061-6.6999969-3.2000122-9S399.3999939,95.5,395.6000061,95.5
		s-6.7999878,1.0999985-8.8999939,3.4000015C384.5,101.1999969,383.5,104.1999969,383.5,107.9000015z"/>
	<path class="st0" d="M430.7000122,68c0-2.4000015,0.8999939-4.5,2.6000061-6.2000008s3.7999878-2.5999985,6.2000122-2.5999985
		s4.5,0.9000015,6.2000122,2.5999985C447.4000549,63.5,448.3000488,65.5999985,448.3000488,68s-0.8999939,4.5-2.6000061,6.1999969
		s-3.7999878,2.5999985-6.2000122,2.5999985s-4.5-0.9000015-6.2000122-2.5999985S430.7000122,70.4000015,430.7000122,68z
		 M431.8999939,83.4000015H447v48.9999924h-15.1000061V83.4000015z"/>
	<path class="st0" d="M458.1000061,56.2000008h15.1000061V132.5h-15.1000061V56.2000008z"/>
	<path class="st0" d="M483.1000061,68c0-2.4000015,0.8999939-4.5,2.6000061-6.2000008s3.7999878-2.5999985,6.2000122-2.5999985
		s4.5,0.9000015,6.2000122,2.5999985C499.8000488,63.5,500.7000427,65.5999985,500.7000427,68s-0.8999939,4.5-2.6000061,6.1999969
		s-3.7999878,2.5999985-6.2000122,2.5999985s-4.5-0.9000015-6.2000122-2.5999985S483.1000061,70.4000015,483.1000061,68z
		 M484.3999939,83.4000015H499.5v48.9999924h-15.1000061V83.4000015z"/>
	<path class="st0" d="M543.7999878,95.5H530.5v16.3000031c0,1.3000031,0.0999756,2.5999985,0.2000122,3.6999969
		c0.0999756,1.0999985,0.4000244,2.0999985,0.9000244,2.9000015s1.2000122,1.4000015,2.2000122,1.9000015
		c1,0.4000015,2.2999878,0.6999969,3.9000244,0.6999969c0.7999878,0,1.9000244-0.0999985,3.2000122-0.3000031
		c1.2999878-0.1999969,2.2999878-0.5999985,3-1.1999969v12.6000061c-1.7000122,0.6000061-3.4000244,1-5.2000122,1.1999969
		s-3.5999756,0.3000031-5.2999878,0.3000031c-2.5999756,0-4.9000244-0.3000031-7.0999756-0.8000031
		c-2.2000122-0.5-4-1.3999939-5.5999756-2.6000061C519.1001587,129,517.8001099,127.5,516.9001465,125.5999985
		c-0.9000244-1.9000015-1.4000244-4.1999969-1.4000244-6.9000015V95.5h-9.7000122V83.4000015h9.7000122v-14.5h15.0999756v14.5
		h13.2999878V95.5H543.7999878z"/>
	<path class="st0" d="M579.7000122,140.3999939c-1,2.6000061-2,4.8999939-2.9000244,7
		c-0.9000244,2-2.0999756,3.6999969-3.5999756,5.1000061c-1.4000244,1.3999939-3.2999878,2.3999939-5.5,3.1000061
		c-2.2000122,0.6999969-5.0999756,1.1000061-8.7999878,1.1000061c-3.9000244,0-7.7000122-0.6000061-11.2999878-1.8000031
		l2-12.3999939c2.2999878,1,4.5999756,1.5,7.0999756,1.5c1.7000122,0,3.0999756-0.1999969,4.0999756-0.6000061
		c1.0999756-0.3999939,2-0.8999939,2.7000122-1.6000061c0.7000122-0.6999969,1.2999878-1.6000061,1.7999878-2.6000061
		s1-2.1999969,1.5-3.5l1.0999756-2.8000031l-21.5-49.4000015h16.2999878l12.5999756,32.4000015h0.2000122l10.7999878-32.4000015
		h15.5L579.7000122,140.3999939z"/>
	<path class="st0" d="M43,181.3999939c-1.2999992-1.6000061-3-2.8000031-5.2000008-3.6000061
		S33.5,176.5999908,31.5999985,176.5999908c-1.1000004,0-2.2999992,0.1000061-3.5,0.3999939
		c-1.2000008,0.3000031-2.3999996,0.6999969-3.3999996,1.3000031c-1.1000004,0.6000061-2,1.3000031-2.6000004,2.3000031
		c-0.7000008,0.8999939-1,2.1000061-1,3.3999939c0,2.1999969,0.7999992,3.8000031,2.3999996,4.8999939
		c1.6000004,1.1000061,3.6000004,2.1000061,6.1000004,2.8999939c2.5,0.8000031,5.0999985,1.6000061,7.9000015,2.3999939
		c2.7999992,0.8000031,5.5,2,7.9000015,3.3999939c2.5,1.5,4.5,3.5,6.0999985,6s2.4000015,5.8000031,2.4000015,10
		c0,4-0.7000008,7.3999939-2.2000008,10.3999939s-3.5,5.3999939-6,7.3999939s-5.4000015,3.3999939-8.7999992,4.3000031
		c-3.2999992,0.8999939-6.7999992,1.3999939-10.5,1.3999939c-4.6000004,0-8.8999996-0.6999969-12.8999996-2.1000061
		c-4-1.3999939-7.6999998-3.6999969-11.1000004-6.8999939l11.1999998-12.3000031
		c1.6000004,2.1999969,3.5999994,3.8000031,6.0999994,5s5,1.8000031,7.6000004,1.8000031
		c1.2999992,0,2.6000004-0.1999969,3.8999996-0.5s2.5-0.8000031,3.5-1.3999939c1-0.6000061,1.9000015-1.3999939,2.5-2.3000031
		c0.5999985-0.8999939,1-2.1000061,1-3.3000031c0-2.1999969-0.7999992-3.8000031-2.5-5.1000061
		C34.1000023,208.799942,32,207.6999359,29.5,206.799942s-5.2000008-1.6999969-8.1000004-2.6000061
		c-2.8999996-0.8999939-5.6000004-2.1000061-8.1000004-3.5c-2.5-1.5-4.6000004-3.3999939-6.1999998-5.8999939
		c-1.5999999-2.3999939-2.5-5.6000061-2.5-9.6000061c0-3.8000031,0.8000002-7.1999969,2.3000002-10.1000061
		c1.5-2.8999939,3.5-5.3000031,6.1000004-7.3000031c2.5-1.8999939,5.3999996-3.3999939,8.7000008-4.3999939
		s6.7000008-1.5,10.2000008-1.5c4,0,7.9000015,0.6000061,11.7000008,1.6999969
		c3.7999992,1.1000061,7.2000008,3.1000061,10.2000008,5.6999969L43,181.3999939z"/>
	<path class="st0" d="M96.8000031,202.1999969c-0.6999969-1.1000061-1.8000031-2-3.0999985-2.6999969
		c-1.3000031-0.6999969-2.8000031-1.1000061-4.3000031-1.1000061c-3.8000031,0-6.8000031,1.1000061-8.9000015,3.3999939
		c-2.0999985,2.3000031-3.1999969,5.3000031-3.1999969,9s1.0999985,6.6999969,3.1999969,9s5.0999985,3.3999939,8.9000015,3.3999939
		c1.6999969,0,3.0999985-0.3999939,4.3000031-1.1000061c1.1999969-0.6999969,2.3000031-1.6000061,3.0999985-2.6000061l10,10.5
		c-2.4000015,2.3999939-5.0999985,4.1000061-8.3000031,5.1000061c-3.1999969,1-6.1999969,1.5-9.0999985,1.5
		c-3.8000031,0-7.3000031-0.6000061-10.5999985-1.8000031c-3.3000031-1.1999969-6.1999969-2.8999939-8.6999969-5.1999969
		s-4.4000015-5-5.8000031-8.1000061c-1.4000015-3.1999969-2.0999985-6.6999969-2.0999985-10.6000061
		c0-3.8999939,0.7000008-7.3999939,2.0999985-10.6000061c1.4000015-3.1999969,3.3000031-5.8999939,5.8000031-8.1000061
		c2.5-2.3000031,5.3000031-4,8.6999969-5.1999969c3.3000031-1.1999969,6.9000015-1.8000031,10.5999985-1.8000031
		c2.9000015,0,5.9000015,0.5,9.0999985,1.5s6,2.6999969,8.3000031,5.1000061L96.8000031,202.1999969z"/>
	<path class="st0" d="M143,229.3000031h-0.1999969c-1.6999969,2.6000061-3.8999939,4.5-6.6999969,5.6000061
		s-5.6999969,1.6999969-8.8000031,1.6999969c-2.3000031,0-4.5-0.3000031-6.5999985-1
		c-2.0999985-0.6000061-4-1.6000061-5.5999985-2.8999939c-1.5999985-1.3000031-2.9000015-2.8999939-3.8000031-4.6999969
		c-0.9000015-1.8999939-1.4000015-4.1000061-1.4000015-6.6000061c0-2.8000031,0.5-5.1999969,1.5999985-7.1999969
		c1-1.8999939,2.5-3.6000061,4.1999969-4.8000031c1.8000031-1.3000031,3.8000031-2.3000031,6.0999985-3
		c2.3000031-0.6999969,4.6999969-1.1999969,7.0999985-1.6000061c2.5-0.3000031,4.8999939-0.5,7.3999939-0.6000061
		s4.6999969-0.1000061,6.8000031-0.1000061c0-2.6999969-1-4.8000031-2.8999939-6.3999939
		c-1.8999939-1.6000061-4.1999969-2.3999939-6.8000031-2.3999939c-2.5,0-4.8000031,0.5-6.8000031,1.6000061
		c-2.0999985,1-3.9000015,2.5-5.5,4.3000031L113,193c2.8000031-2.6000061,6.0999985-4.6000061,9.9000015-5.8999939
		c3.8000031-1.3000031,7.7000046-2,11.7000046-2c4.3999939,0,8.1000061,0.6000061,10.8999939,1.6999969
		c2.8999939,1.1000061,5.1000061,2.6999969,6.8999939,4.8999939C154.0999908,193.8999939,155.2999878,196.5,156,199.5999908
		c0.6999969,3.1000061,1,6.6999969,1,10.8000031v24.8999939h-14V229.3000031z M139.3000031,213.8999939
		c-1.1000061,0-2.6000061,0-4.3000031,0.1999969c-1.6999969,0.1000061-3.3999939,0.3999939-4.8999939,0.8999939
		c-1.6000061,0.5-2.9000015,1.1999969-4,2.1000061c-1.0999985,0.8999939-1.6999969,2.3000031-1.6999969,3.8999939
		c0,1.8000031,0.8000031,3.1999969,2.3000031,4c1.5,0.8999939,3.1999969,1.3000031,4.8000031,1.3000031
		c1.5,0,2.8999939-0.1999969,4.3000031-0.6000061c1.3999939-0.3999939,2.6000061-1,3.6999969-1.6999969
		c1.1000061-0.6999969,1.8999939-1.6999969,2.6000061-2.8000031c0.6000061-1.1000061,1-2.5,1-4v-3.1999969h-3.8000183V213.8999939z"
		/>
	<path class="st0" d="M166.3999939,186.3999939h14.5v6.6999969h0.1999969c0.5-0.8999939,1.1000061-1.8999939,2-2.8000031
		c0.8999939-0.8999939,1.8999939-1.8000031,3.1000061-2.5c1.1999969-0.6999969,2.6000061-1.3000031,4.1000061-1.8000031
		s3.1999969-0.6999969,5-0.6999969c3.8000031,0,6.8999939,0.6000061,9.3000031,1.8000031
		c2.3999939,1.1999969,4.1999969,2.8000031,5.5,4.8999939c1.3000031,2.1000061,2.1999969,4.5,2.6999969,7.3999939
		c0.5,2.8000031,0.6999969,5.8999939,0.6999969,9.1999969v27h-15.1000061v-24c0-1.3999939-0.1000061-2.8999939-0.1999969-4.3999939
		s-0.3999939-2.8999939-0.8999939-4.1999969S196,200.6999817,195,199.8999786s-2.5-1.1999969-4.5-1.1999969
		s-3.5,0.3999939-4.6999969,1.1000061c-1.1999969,0.6999969-2.1000061,1.6000061-2.8000031,2.8000031
		c-0.6000061,1.1999969-1.1000061,2.5-1.3000031,4s-0.3000031,3-0.3000031,4.6000061v24.3999939h-15.1000061v-49.1999969
		H166.3999939z"/>
	<path class="st0" d="M224.3000031,186.3999939h14.5v6.6999969H239c0.5-0.8999939,1.1000061-1.8999939,2-2.8000031
		c0.8999939-0.8999939,1.8999939-1.8000031,3.1000061-2.5c1.1999969-0.6999969,2.6000061-1.3000031,4.1000061-1.8000031
		s3.1999969-0.6999969,5-0.6999969c3.7999878,0,6.8999939,0.6000061,9.2999878,1.8000031s4.2000122,2.8000031,5.5,4.8999939
		c1.2999878,2.1000061,2.2000122,4.5,2.7000122,7.3999939c0.5,2.8000031,0.7000122,5.8999939,0.7000122,9.1999969v27h-15.1000061
		v-24c0-1.3999939-0.1000061-2.8999939-0.2000122-4.3999939s-0.3999939-2.8999939-0.8999939-4.1999969
		s-1.3000031-2.3000031-2.3000031-3.1000061s-2.5-1.1999969-4.5-1.1999969s-3.5,0.3999939-4.6999969,1.1000061
		c-1.1999969,0.6999969-2.1000061,1.6000061-2.8000031,2.8000031c-0.6000061,1.1999969-1.1000061,2.5-1.3000031,4
		s-0.3000031,3-0.3000031,4.6000061v24.3999939h-15.1000061v-49.1999969H224.3000031z"/>
	<path class="st0" d="M328.6000061,226.8999939c-2.3999939,3.1000061-5.5,5.5-9.2000122,7.1999969s-7.5,2.5-11.5,2.5
		c-3.7999878,0-7.2999878-0.6000061-10.6000061-1.8000031c-3.2999878-1.1999969-6.2000122-2.8999939-8.7000122-5.1999969
		s-4.3999939-5-5.7999878-8.1000061c-1.3999939-3.1999969-2.1000061-6.6999969-2.1000061-10.6000061
		c0-3.8999939,0.7000122-7.3999939,2.1000061-10.6000061c1.3999939-3.1999969,3.2999878-5.8999939,5.7999878-8.1000061
		c2.5-2.3000031,5.2999878-4,8.7000122-5.1999969c3.2999878-1.1999969,6.8999939-1.8000031,10.6000061-1.8000031
		c3.5,0,6.7000122,0.6000061,9.5,1.8000031c2.8999939,1.1999969,5.2999878,2.8999939,7.2999878,5.1999969s3.5,5,4.6000061,8.1000061
		c1.1000061,3.1999969,1.6000061,6.6999969,1.6000061,10.6000061v4.6999969h-35.1000061
		c0.6000061,2.8999939,1.8999939,5.1999969,3.8999939,6.8999939s4.5,2.6000061,7.5,2.6000061
		c2.5,0,4.6000061-0.6000061,6.2999878-1.6999969c1.7000122-1.1000061,3.2000122-2.5,4.5-4.3000031L328.6000061,226.8999939z
		 M315.7999878,205.3999939c0.1000061-2.6000061-0.7999878-4.6999969-2.5-6.6000061
		c-1.7000122-1.8000031-4-2.6999969-6.7999878-2.6999969c-1.7000122,0-3.2000122,0.3000031-4.3999939,0.8000031
		c-1.2999878,0.5-2.3999939,1.1999969-3.2999878,2.1000061c-0.8999939,0.8000031-1.6000061,1.8000031-2.1000061,2.8999939
		c-0.5,1.1000061-0.7999878,2.3000031-0.8999939,3.5H315.7999878z"/>
	<path class="st0" d="M340.1000061,186.3999939h15.1000061v7.8999939h0.2000122c1.6000061-3,3.5-5.3000031,5.7000122-6.8000031
		s5-2.3000031,8.3999939-2.3000031c0.8999939,0,1.7000122,0,2.6000061,0.1000061s1.7000122,0.1999969,2.3999939,0.3999939
		v13.8000031c-1.1000061-0.3000031-2.1000061-0.6000061-3.2000122-0.8000031c-1-0.1999969-2.1000061-0.3000031-3.2999878-0.3000031
		c-2.8999939,0-5.2000122,0.3999939-6.8999939,1.1999969c-1.7000122,0.8000031-3,1.8999939-3.8999939,3.3999939
		c-0.8999939,1.3999939-1.5,3.1999969-1.7999878,5.1999969s-0.3999939,4.1999969-0.3999939,6.6999969v20.5h-15.1000061v-48.9999695
		H340.1000061z"/>
</g>
</svg>
