<?xml version="1.0" encoding="utf-8"?>
<!-- Generator: Adobe Illustrator 25.2.3, SVG Export Plug-In . SVG Version: 6.00 Build 0)  -->
<svg version="1.1"
	 id="svg2" xmlns:cc="http://creativecommons.org/ns#" xmlns:dc="http://purl.org/dc/elements/1.1/" xmlns:inkscape="http://www.inkscape.org/namespaces/inkscape" xmlns:rdf="http://www.w3.org/1999/02/22-rdf-syntax-ns#" xmlns:sodipodi="http://sodipodi.sourceforge.net/DTD/sodipodi-0.dtd" xmlns:svg="http://www.w3.org/2000/svg"
	 xmlns="http://www.w3.org/2000/svg" xmlns:xlink="http://www.w3.org/1999/xlink" x="0px" y="0px" viewBox="0 0 38.5 41.4000015"
	 style="enable-background:new 0 0 38.5 41.4000015;" xml:space="preserve">
<style type="text/css">
	.st0{fill:#231F20;}
</style>
<g>
	<g>
		<g>
			<path class="st0" d="M19.25,41.4000015L4.8216715,35.5544014L1.9601352,7.3553438L19.25,0.0000008l17.2898636,7.3553429
				l-2.8615341,28.1990585L19.25,41.4000015z M5.6954913,34.8990364L19.25,40.3905602l13.5545082-5.4915237l2.735054-26.9525852
				L19.25,1.0166485L2.9604394,7.9464512L5.6954913,34.8990364z"/>
		</g>
		<g>
			<path class="st0" d="M17.4633789,14.7373838c-0.2273865-0.2764692-0.5063934-0.4890366-0.8372746-0.6372442
				c-0.3310833-0.1481581-0.7138357-0.2222614-1.1484613-0.2222614c-0.4348288,0-0.8372755,0.0840521-1.2077456,0.2519026
				c-0.37047,0.1681051-0.6916046,0.4026499-0.9632015,0.7038879c-0.2718506,0.3014927-0.4841633,0.6594763-0.6372442,1.0744085
				c-0.1532841,0.4149323-0.2296724,0.8645821-0.2296724,1.3484917c0,0.494112,0.0763884,0.9460964,0.2296724,1.3559532
				c0.1530809,0.4100609,0.363059,0.7657604,0.6298342,1.0669479c0.2667236,0.3014927,0.580245,0.536087,0.9409704,0.7038879
				c0.3605213,0.1681042,0.7483501,0.2519531,1.1632824,0.2519531c0.4742155,0,0.894021-0.0986691,1.2596178-0.2964153
				c0.3653946-0.197443,0.6668358-0.474165,0.9039688-0.8297634l1.9264545,1.4374161
				c-0.4445744,0.6223736-1.0077152,1.0817184-1.6893711,1.3781338c-0.6816578,0.2964172-1.3832607,0.4445248-2.1043043,0.4445248
				c-0.8201199,0-1.5758801-0.1285152-2.2672815-0.3852406c-0.6916056-0.2568264-1.2892599-0.6247082-1.793067-1.1040497
				c-0.5038567-0.4790382-0.8965578-1.0594864-1.1781034-1.7412453c-0.2815952-0.6816559-0.4223423-1.4422894-0.4223423-2.2821026
				c0-0.8395596,0.1407471-1.6004457,0.4223423-2.2821026c0.2815456-0.6816559,0.6742468-1.2619524,1.1781034-1.7412434
				c0.5038071-0.4790382,1.1014614-0.8469696,1.793067-1.1040001c0.6914015-0.2567759,1.4471617-0.3852901,2.2672815-0.3852901
				c0.2964163,0,0.6050653,0.0273066,0.9261999,0.0815144c0.3209324,0.0544109,0.6372452,0.1407976,0.948431,0.2593136
				c0.3111877,0.1185665,0.6098881,0.2767229,0.8965588,0.4742155c0.286417,0.1977463,0.5431938,0.439702,0.7705822,0.726119
				L17.4633789,14.7373838z"/>
			<path class="st0" d="M25.9397259,14.5743551c-0.1876965-0.2370825-0.4421883-0.4123945-0.7631721-0.5260887
				c-0.3210831-0.1134405-0.6249104-0.1703882-0.9113789-0.1703882c-0.1680031,0-0.3407784,0.0198965-0.5186272,0.0592833
				c-0.1778507,0.0395899-0.3459549,0.1014109-0.5038071,0.1852093c-0.1581554,0.0840521-0.2866707,0.1952085-0.3853416,0.3334179
				c-0.0988731,0.138463-0.1482086,0.306365-0.1482086,0.5038576c0,0.3163128,0.1185665,0.5582676,0.3557014,0.726119
				c0.237133,0.1681042,0.5357819,0.3111858,0.8965569,0.4297533c0.3604717,0.1185665,0.7483501,0.2370815,1.1632328,0.355648
				c0.4149837,0.1185665,0.802557,0.2866726,1.1633339,0.5038586c0.3604698,0.2174397,0.6594238,0.5089321,0.8965588,0.8743267
				c0.237133,0.3655968,0.3555965,0.8546333,0.3555965,1.4671097c0,0.5829868-0.10882,1.0916653-0.3259563,1.5263424
				c-0.2174397,0.4347782-0.5113182,0.7953491-0.8817368,1.0817165c-0.3705215,0.2866726-0.8002243,0.4990349-1.2892094,0.6372967
				c-0.4890881,0.1381569-1.0053806,0.2073898-1.5486755,0.2073898c-0.6816559,0-1.3139267-0.1036453-1.8967609-0.3111362
				c-0.5830364-0.2074909-1.1262302-0.5431938-1.6300869-1.0077152l1.6449089-1.8079376
				c0.237133,0.3163128,0.5357819,0.5608559,0.8965569,0.73353c0.3604717,0.1729774,0.73353,0.2593632,1.1187706,0.2593632
				c0.1875954,0,0.3779316-0.0222301,0.5706024-0.0666924c0.1925678-0.0444622,0.3653431-0.1111565,0.5186272-0.2000809
				c0.15308-0.0888252,0.2764187-0.2023144,0.3704185-0.3407784c0.0937977-0.1382599,0.1407986-0.3012886,0.1407986-0.4890881
				c0-0.3160076-0.1211052-0.565424-0.3630104-0.7483501c-0.2422085-0.1826706-0.5460358-0.3382893-0.9113789-0.466753
				c-0.3656483-0.1283131-0.7608356-0.2568283-1.185564-0.3853416c-0.4248295-0.1282616-0.8200684-0.301239-1.185463-0.5186291
				c-0.3655968-0.217186-0.6693745-0.5038567-0.9113293-0.8595047c-0.2422085-0.3556499-0.3631096-0.82479-0.3631096-1.4078274
				c0-0.5630894,0.1111565-1.0569983,0.3334675-1.4818792c0.2222633-0.4246273,0.5186291-0.7802763,0.8890972-1.066947
				c0.37047-0.286418,0.7976856-0.5013199,1.2817993-0.6446047c0.4840126-0.1431332,0.9829464-0.2149019,1.4967003-0.2149019
				c0.5928326,0,1.1656685,0.0840521,1.7190132,0.2519035c0.5531425,0.1681042,1.0521774,0.4497004,1.4967003,0.8446856
				L25.9397259,14.5743551z"/>
			<path class="st0" d="M29.0219498,21.2280426c0-0.1874924,0.0345135-0.3653431,0.1037464-0.5334473
				c0.0690269-0.167902,0.1653633-0.3134708,0.2890053-0.4371128c0.1233387-0.1234398,0.2690086-0.2197742,0.4371128-0.2890072
				c0.167902-0.0690269,0.3457527-0.1037445,0.5334492-0.1037445c0.1875935,0,0.3654442,0.0347176,0.5335484,0.1037445
				c0.167902,0.0692329,0.3134708,0.1655674,0.4371128,0.2890072c0.1234398,0.123642,0.2197762,0.2692108,0.2890072,0.4371128
				c0.0690289,0.1681042,0.1037464,0.3459549,0.1037464,0.5334473c0,0.1877995-0.0347176,0.3656483-0.1037464,0.5335503
				c-0.069231,0.1681042-0.1655674,0.3136749-0.2890072,0.4371128c-0.123642,0.123642-0.2692108,0.2199783-0.4371128,0.2890072
				c-0.1681042,0.0689259-0.3459549,0.1037445-0.5335484,0.1037445c-0.1876965,0-0.3655472-0.0348186-0.5334492-0.1037445
				c-0.1681042-0.0690289-0.3137741-0.1653652-0.4371128-0.2890072c-0.123642-0.1234379-0.2199783-0.2690086-0.2890053-0.4371128
				C29.0564632,21.5936909,29.0219498,21.4158421,29.0219498,21.2280426z"/>
		</g>
		<g>
			<path class="st0" d="M12.6646805,26.4282246c-0.0822248-0.119175-0.1921635-0.2065773-0.329916-0.262104
				c-0.1377525-0.0555286-0.282712-0.0832405-0.4347782-0.0832405c-0.0904474,0-0.1778498,0.010252-0.262105,0.0307579
				c-0.0842552,0.0207081-0.1602879,0.0534973-0.2282,0.0986691c-0.0678101,0.0453777-0.122323,0.1039505-0.163435,0.1758213
				c-0.0411129,0.0719719-0.0616188,0.1572418-0.0616188,0.2559128c0,0.1480045,0.0513659,0.2611904,0.1541977,0.3391533
				c0.1027308,0.0781651,0.2301292,0.1460762,0.3822966,0.2035313c0.1520653,0.0576591,0.3186474,0.1131878,0.4995432,0.1665821
				c0.1808949,0.0533962,0.3473759,0.1273994,0.4995422,0.2220078c0.1520662,0.0946102,0.2795658,0.2199783,0.3823977,0.3762054
				c0.1027308,0.156229,0.1541977,0.363821,0.1541977,0.6228809c0,0.2342911-0.0432444,0.438839-0.12953,0.6135426
				c-0.0863867,0.1748047-0.2025175,0.3197632-0.3484926,0.4347782c-0.1459742,0.1152153-0.3155003,0.2015018-0.5087805,0.2590599
				c-0.1932793,0.0575581-0.3968124,0.0863876-0.6104965,0.0863876c-0.2713423,0-0.5325346-0.0453777-0.7832699-0.1357231
				c-0.2508373-0.0903454-0.4666529-0.2425137-0.6475487-0.4563999l0.5859308-0.5673542
				c0.0945082,0.1439457,0.2188606,0.2559128,0.3730583,0.3361092c0.1541977,0.0801945,0.3176327,0.1202908,0.4903049,0.1202908
				c0.0904474,0,0.1808958-0.0123844,0.2713432-0.0370522c0.0904474-0.0246658,0.1726723-0.0616169,0.2466755-0.1109524
				c0.0740023-0.0493355,0.1335907-0.111969,0.1788645-0.1881027c0.0451736-0.0760326,0.067811-0.163435,0.067811-0.2621059
				c0-0.1603889-0.0514669-0.2837276-0.1540966-0.3700123c-0.1028318-0.0863876-0.2303314-0.1592731-0.3823977-0.2189617
				c-0.1521673-0.0595894-0.3186474-0.1161308-0.4995422-0.1696281c-0.1809969-0.0533962-0.3474779-0.1263828-0.4995432-0.2188606
				c-0.1521673-0.0925808-0.2796669-0.2159176-0.3823977-0.3701153c-0.1027308-0.1540966-0.1540966-0.360775-0.1540966-0.6197338
				c0-0.2260685,0.0461884-0.4213791,0.1387682-0.5859299c0.0924778-0.1643486,0.2136831-0.3010864,0.3638201-0.4101105
				c0.1500359-0.1088219,0.3216934-0.190134,0.5149736-0.2435284c0.1931782-0.0533962,0.3905182-0.0801945,0.592021-0.0801945
				c0.2302303,0,0.4532528,0.0349197,0.6691704,0.1048622c0.2158155,0.0699406,0.4101105,0.1849556,0.5827827,0.3453445
				L12.6646805,26.4282246z"/>
			<path class="st0" d="M14.7860889,27.3100643h0.0123844c0.0575571-0.1233387,0.1592731-0.2353058,0.3052483-0.3361073
				c0.1458731-0.1007004,0.3339758-0.1510506,0.5643082-0.1510506c0.19734,0,0.3648357,0.0329914,0.5025883,0.0986691
				c0.1377525,0.0657806,0.2498226,0.1521683,0.3361073,0.2590599c0.0863876,0.1068935,0.1480064,0.2302303,0.1850586,0.3700142
				c0.0369492,0.139782,0.0555267,0.2857571,0.0555267,0.4378223v1.8686428h-0.7401276v-1.4986286
				c0-0.0822258-0.0040607-0.1735878-0.0122833-0.2743893c-0.0083237-0.1007004-0.0298443-0.1952076-0.064765-0.2837276
				c-0.0350218-0.088316-0.0894327-0.1623173-0.163435-0.2220078c-0.0740032-0.0595875-0.1748047-0.0894318-0.3022032-0.0894318
				c-0.1233377,0-0.2271843,0.020607-0.3114405,0.0617199c-0.0842552,0.041111-0.1541967,0.0966396-0.2096233,0.1664791
				c-0.0555267,0.0699425-0.095624,0.1501369-0.1202917,0.2404842c-0.0246677,0.0905495-0.0370522,0.1850567-0.0370522,0.2837276
				v1.6157742h-0.7400265V25.194746h0.7400265V27.3100643z"/>
			<path class="st0" d="M17.5427628,25.8916302c0-0.1191769,0.044157-0.2229214,0.132576-0.3114414
				c0.0884171-0.088316,0.2003841-0.1325741,0.3361073-0.1325741c0.1357212,0,0.2498226,0.0422287,0.3423004,0.1264839
				s0.1387672,0.1901321,0.1387672,0.3175316c0,0.1274986-0.0462894,0.2333775-0.1387672,0.3176327
				c-0.0924778,0.0843563-0.2065792,0.1263828-0.3423004,0.1263828c-0.1357231,0-0.2476902-0.0440559-0.3361073-0.132576
				C17.5869198,26.1147537,17.5427628,26.0109062,17.5427628,25.8916302z M17.647625,26.8969078h0.7400265v2.960207H17.647625
				V26.8969078z"/>
			<path class="st0" d="M19.8800888,28.6360207c0.0246677,0.2220078,0.1110535,0.39468,0.2590599,0.5180187
				c0.1480045,0.1233368,0.32687,0.1850567,0.5364933,0.1850567c0.1850567,0,0.340168-0.0379658,0.4656372-0.1140995
				c0.1253681-0.0760326,0.2353058-0.1716576,0.329916-0.2867737l0.5304031,0.4008732
				c-0.1726723,0.2137852-0.3659534,0.3659534-0.5797386,0.4562988c-0.2137852,0.0904484-0.4378223,0.1357231-0.6722145,0.1357231
				c-0.2220097,0-0.431633-0.0369511-0.628973-0.1110554c-0.19734-0.0740032-0.3679829-0.1787643-0.5119267-0.3144855
				c-0.1439457-0.135622-0.2580452-0.299057-0.3421993-0.4903049c-0.0843563-0.1911488-0.1264839-0.4039192-0.1264839-0.6383114
				c0-0.2342911,0.0421276-0.4470615,0.1264839-0.6382084c0.0841541-0.1912498,0.1982536-0.3546848,0.3421993-0.4903069
				c0.1439438-0.1357212,0.3145866-0.2405834,0.5119267-0.3145866s0.4069633-0.1109524,0.628973-0.1109524
				c0.2055626,0,0.3936653,0.0360355,0.5643063,0.1079063c0.1705418,0.0719738,0.316618,0.1757183,0.4379253,0.3114414
				c0.1212063,0.1357212,0.2158165,0.3032169,0.2836266,0.5025883c0.0679111,0.1994724,0.1018162,0.4286861,0.1018162,0.687645
				v0.2035332H19.8800888z M21.397192,28.0809498c-0.0040607-0.2178459-0.0719719-0.3895035-0.2034302-0.5148716
				c-0.1316624-0.1253681-0.3145866-0.1881027-0.5488777-0.1881027c-0.2220078,0-0.3978291,0.0637512-0.527359,0.1911488
				c-0.129427,0.1274986-0.2087097,0.2981415-0.2374363,0.5118256H21.397192z"/>
			<path class="st0" d="M22.8895798,25.194746h0.7400246v4.6623688h-0.7400246V25.194746z"/>
			<path class="st0" d="M26.8734379,29.4130993h-0.0122833c-0.1069946,0.1809959-0.2508373,0.3124542-0.4317322,0.39468
				c-0.1809978,0.0822258-0.3762054,0.1233387-0.5859318,0.1233387c-0.2302303,0-0.4347763-0.0400982-0.6135406-0.1202927
				c-0.1788654-0.0800934-0.3321495-0.190134-0.459547-0.329916c-0.1273975-0.1396809-0.2240391-0.3042336-0.2898178-0.493351
				c-0.0657806-0.1891174-0.098671-0.3925495-0.098671-0.6105976c0-0.2178459,0.0349197-0.4213791,0.1048622-0.6104965
				c0.0698414-0.1890163,0.1674957-0.3535671,0.2929649-0.493351c0.1253681-0.139782,0.2764187-0.2498226,0.4532547-0.329916
				c0.176733-0.0801945,0.3700123-0.1202908,0.5797367-0.1202908c0.1396809,0,0.2630196,0.0144138,0.3700142,0.0431423
				c0.1067905,0.0288296,0.2014008,0.0657787,0.2836246,0.1110535c0.0822258,0.0452747,0.1520672,0.0934944,0.2097263,0.1448593
				c0.0575562,0.051466,0.1048622,0.1018162,0.1418114,0.1511517h0.0185776V25.194746h0.7400265v4.6623688h-0.7030754V29.4130993z
				 M25.1219406,28.3769608c0,0.1152172,0.0194912,0.2261696,0.0586739,0.3330631
				c0.0389805,0.1069927,0.0965385,0.2015018,0.1726723,0.2837276c0.0760345,0.0822239,0.1673946,0.1480045,0.2743893,0.19734
				c0.1068916,0.0493336,0.228199,0.0740013,0.363821,0.0740013c0.1357212,0,0.2569275-0.0246677,0.3639221-0.0740013
				c0.1068916-0.0493355,0.1982536-0.1151161,0.2743874-0.19734c0.0760345-0.0822258,0.1335907-0.1767349,0.1726742-0.2837276
				c0.0390816-0.1068935,0.0586739-0.2178459,0.0586739-0.3330631c0-0.1150131-0.0195923-0.2259674-0.0586739-0.332962
				c-0.0390835-0.1068916-0.0966396-0.2014008-0.1726742-0.2837257c-0.0761337-0.0821247-0.1674957-0.1480064-0.2743874-0.1973419
				c-0.1069946-0.0493336-0.2282009-0.0740013-0.3639221-0.0740013c-0.135622,0-0.2569294,0.0246677-0.363821,0.0740013
				c-0.1069946,0.0493355-0.1983547,0.1152172-0.2743893,0.1973419c-0.0761337,0.082325-0.1336918,0.1768341-0.1726723,0.2837257
				C25.1414318,28.1509933,25.1219406,28.2619476,25.1219406,28.3769608z"/>
		</g>
	</g>
</g>
</svg>
